<?xml version="1.0" encoding="UTF-8" standalone="no"?>
<svg
   xmlns:dc="http://purl.org/dc/elements/1.1/"
   xmlns:cc="http://creativecommons.org/ns#"
   xmlns:rdf="http://www.w3.org/1999/02/22-rdf-syntax-ns#"
   xmlns:svg="http://www.w3.org/2000/svg"
   xmlns="http://www.w3.org/2000/svg"
   xmlns:sodipodi="http://sodipodi.sourceforge.net/DTD/sodipodi-0.dtd"
   xmlns:inkscape="http://www.inkscape.org/namespaces/inkscape"
   inkscape:version="1.0beta1 (32d4812, 2019-09-19)"
   sodipodi:docname="jitter-logo.svg"
   viewBox="0 0 693.33331 693.33331"
   height="693.33331"
   width="693.33331"
   xml:space="preserve"
   id="svg28"
   version="1.1"
   inkscape:export-filename="/Users/julianvu/Development/jitter/assets/jitter-logo.png"
   inkscape:export-xdpi="221"
   inkscape:export-ydpi="221">
  <metadata
   id="metadata34">
    <rdf:RDF>
      <cc:Work
   rdf:about="">
        <dc:format>image/svg+xml</dc:format>


        <dc:type
   rdf:resource="http://purl.org/dc/dcmitype/StillImage" />


        <dc:title />


      </cc:Work>


    </rdf:RDF>


  </metadata>


  <defs
   id="defs32">
    <clipPath
   id="clipPath46"
   clipPathUnits="userSpaceOnUse">
      <path
   inkscape:connector-curvature="0"
   id="path44"
   d="M 0,520 H 520 V 0 H 0 Z" />


    </clipPath>


  </defs>


  <sodipodi:namedview
   inkscape:current-layer="g36"
   inkscape:window-maximized="0"
   inkscape:window-y="23"
   inkscape:window-x="0"
   inkscape:cy="560"
   inkscape:cx="-150"
   inkscape:zoom="0.35"
   showgrid="false"
   id="namedview30"
   inkscape:window-height="907"
   inkscape:window-width="1080"
   inkscape:pageshadow="2"
   inkscape:pageopacity="0"
   guidetolerance="10"
   gridtolerance="10"
   objecttolerance="10"
   borderopacity="1"
   inkscape:document-rotation="0"
   bordercolor="#666666"
   pagecolor="#ffffff" />


  <g
   transform="matrix(1.3333333,0,0,-1.3333333,0,693.33333)"
   inkscape:label="cup-1849083"
   inkscape:groupmode="layer"
   id="g36">
    <path
   inkscape:export-ydpi="221"
   inkscape:export-xdpi="221"
   inkscape:connector-curvature="0"
   id="path38"
   style="fill:#ffffff;fill-opacity:0;fill-rule:nonzero;stroke:none;stroke-width:0.645604"
   d="M 92.142859,92.142859 H 427.85714 V 427.85714 H 92.142859 Z" />


    <g
   id="g40">
      <g
   clip-path="url(#clipPath46)"
   id="g42">
        <g
   transform="translate(176.6352,294.939)"
   id="g48">
          <path
   inkscape:connector-curvature="0"
   id="path50"
   style="fill:#a7efe9;fill-opacity:1;fill-rule:nonzero;stroke:none"
   d="m 0,0 c -6.701,-0.204 -11.877,-0.321 -13.839,-0.321 h -13.267 c -0.642,0 -1.253,0.036 -1.876,0.059 -0.101,-0.006 -0.188,-0.059 -0.292,-0.059 h -9.159 v -59.835 c 0,-59.591 48.481,-108.072 108.071,-108.072 59.59,0 108.071,48.481 108.071,108.072 V -0.321 H 0.796 C 0.325,-0.321 0.114,-0.186 0,0" />


        </g>


        <g
   transform="translate(156.4066,299.2466)"
   id="g52">
          <path
   inkscape:connector-curvature="0"
   id="path54"
   style="fill:#404041;fill-opacity:1;fill-rule:nonzero;stroke:none"
   d="m 0,0 h 4.058 c 2.656,0 4.81,2.154 4.81,4.81 0,2.657 -2.154,4.81 -4.81,4.81 H 0 C -2.656,9.62 -4.81,7.467 -4.81,4.81 -4.81,2.154 -2.656,0 0,0" />


        </g>


        <g
   transform="translate(354.3444,274.3844)"
   id="g56">
          <path
   inkscape:connector-curvature="0"
   id="path58"
   style="fill:#fbac91;fill-opacity:1;fill-rule:nonzero;stroke:none"
   d="m 0,0 v 20.234 h -176.913 c -0.472,0 -0.682,0.134 -0.796,0.321 -6.7,-0.204 -11.878,-0.321 -13.839,-0.321 h -13.267 c -0.643,0 -1.254,0.036 -1.876,0.059 -0.102,-0.006 -0.189,-0.059 -0.291,-0.059 h -9.16 V 0 Z" />


        </g>


        <g
   transform="translate(377.1269,285.218)"
   id="g60">
          <path
   inkscape:connector-curvature="0"
   id="path62"
   style="fill:#404041;fill-opacity:1;fill-rule:nonzero;stroke:none"
   d="M 0,0 C 7.293,0 13.227,-5.934 13.227,-13.227 V -45.41 C 13.227,-52.703 7.293,-58.637 0,-58.637 h -21.176 c 0.534,4.509 0.817,9.094 0.817,13.745 l 0,44.892 z m -136.397,-160.93 c 55.983,0 102.833,39.85 113.675,92.673 H 0 c 12.597,0 22.847,10.249 22.847,22.847 v 32.183 C 22.847,-0.63 12.597,9.62 0,9.62 h -20.359 v 9.218 c 0,2.657 -2.154,4.81 -4.81,4.81 h -179.018 c -2.656,0 -4.81,-2.153 -4.81,-4.81 0,-2.656 2.154,-4.809 4.81,-4.809 h 174.209 v -58.921 c 0,-58.679 -47.74,-106.419 -106.419,-106.419 -58.679,0 -106.419,47.74 -106.419,106.419 v 58.921 h 9.02 c 2.656,0 4.81,2.153 4.81,4.809 0,2.657 -2.154,4.81 -4.81,4.81 h -13.829 c -2.656,0 -4.81,-2.153 -4.81,-4.81 v -63.73 c 0,-63.983 52.054,-116.038 116.038,-116.038" />


        </g>


        <g
   transform="translate(200.9346,153.4782)"
   id="g64">
          <path
   inkscape:connector-curvature="0"
   id="path66"
   style="fill:#404041;fill-opacity:1;fill-rule:nonzero;stroke:none"
   d="m 0,0 c 0.511,-0.252 1.052,-0.37 1.585,-0.37 1.334,0 2.616,0.742 3.242,2.021 0.877,1.788 0.138,3.949 -1.651,4.826 -4.818,2.363 -9.439,5.209 -13.735,8.46 -1.587,1.202 -3.851,0.888 -5.053,-0.699 -1.203,-1.589 -0.89,-3.852 0.699,-5.053 C -10.25,5.655 -5.233,2.565 0,0" />


        </g>


        <g
   transform="translate(179.5885,169.3648)"
   id="g68">
          <path
   inkscape:connector-curvature="0"
   id="path70"
   style="fill:#404041;fill-opacity:1;fill-rule:nonzero;stroke:none"
   d="M 0,0 C 0.933,0 1.867,0.361 2.573,1.079 3.969,2.501 3.949,4.785 2.527,6.181 -13.687,22.11 -22.618,43.305 -22.618,65.866 v 20.669 c 0,1.991 -1.615,3.607 -3.608,3.607 -1.992,0 -3.607,-1.616 -3.607,-3.607 V 65.866 c 0,-24.512 9.697,-47.536 27.305,-64.833 C -1.826,0.344 -0.913,0 0,0" />


        </g>


        <g
   transform="translate(403.9931,120.9077)"
   id="g72">
          <path
   inkscape:connector-curvature="0"
   id="path74"
   style="fill:#404041;fill-opacity:1;fill-rule:nonzero;stroke:none"
   d="m 0,0 h -31.593 c -2.656,0 -4.81,-2.154 -4.81,-4.81 0,-2.656 2.154,-4.81 4.81,-4.81 H 0 c 2.656,0 4.81,2.154 4.81,4.81 C 4.81,-2.154 2.656,0 0,0" />


        </g>


        <g
   transform="translate(357.7711,120.9077)"
   id="g76">
          <path
   inkscape:connector-curvature="0"
   id="path78"
   style="fill:#404041;fill-opacity:1;fill-rule:nonzero;stroke:none"
   d="m 0,0 h -2.003 c -2.657,0 -4.81,-2.154 -4.81,-4.81 0,-2.656 2.153,-4.81 4.81,-4.81 H 0 c 2.656,0 4.81,2.154 4.81,4.81 C 4.81,-2.154 2.656,0 0,0" />


        </g>


        <g
   transform="translate(340.9354,120.9077)"
   id="g80">
          <path
   inkscape:connector-curvature="0"
   id="path82"
   style="fill:#404041;fill-opacity:1;fill-rule:nonzero;stroke:none"
   d="m 0,0 h -224.928 c -2.657,0 -4.81,-2.154 -4.81,-4.81 0,-2.656 2.153,-4.81 4.81,-4.81 H 0 c 2.656,0 4.81,2.154 4.81,4.81 C 4.81,-2.154 2.656,0 0,0" />


        </g>


        <g
   transform="translate(187.7077,342.6405)"
   id="g84">
          <path
   inkscape:connector-curvature="0"
   id="path86"
   style="fill:#404041;fill-opacity:1;fill-rule:nonzero;stroke:none"
   d="m 0,0 c -3.925,-3.527 -8.809,-7.918 -8.809,-16.546 0,-2.656 2.153,-4.81 4.809,-4.81 2.657,0 4.81,2.154 4.81,4.81 0,4.147 1.927,6.072 5.621,9.391 3.925,3.527 8.809,7.918 8.809,16.546 0,8.628 -4.884,13.019 -8.809,16.546 -3.694,3.319 -5.621,5.244 -5.621,9.391 0,4.146 1.927,6.071 5.621,9.389 3.925,3.528 8.809,7.917 8.809,16.545 0,2.656 -2.153,4.809 -4.809,4.809 -2.657,0 -4.811,-2.153 -4.811,-4.809 0,-4.146 -1.926,-6.071 -5.619,-9.39 -3.925,-3.527 -8.81,-7.916 -8.81,-16.544 C -8.809,26.7 -3.925,22.31 0,18.782 3.694,15.463 5.62,13.539 5.62,9.391 5.62,5.244 3.694,3.319 0,0" />


        </g>


        <g
   transform="translate(244.7294,342.6405)"
   id="g88">
          <path
   inkscape:connector-curvature="0"
   id="path90"
   style="fill:#404041;fill-opacity:1;fill-rule:nonzero;stroke:none"
   d="m 0,0 c -3.925,-3.527 -8.809,-7.918 -8.809,-16.546 0,-2.656 2.153,-4.81 4.809,-4.81 2.657,0 4.81,2.154 4.81,4.81 0,4.147 1.927,6.072 5.62,9.391 3.926,3.527 8.81,7.918 8.81,16.546 0,8.628 -4.884,13.019 -8.81,16.546 -3.693,3.319 -5.62,5.244 -5.62,9.391 0,4.146 1.927,6.071 5.62,9.389 3.926,3.528 8.81,7.917 8.81,16.545 0,2.656 -2.153,4.809 -4.81,4.809 -2.656,0 -4.81,-2.153 -4.81,-4.809 0,-4.146 -1.927,-6.071 -5.619,-9.39 -3.925,-3.527 -8.81,-7.916 -8.81,-16.544 C -8.809,26.7 -3.925,22.31 0,18.782 3.693,15.463 5.62,13.539 5.62,9.391 5.62,5.244 3.693,3.319 0,0" />


        </g>


        <g
   transform="translate(292.9411,377.9685)"
   id="g92">
          <path
   inkscape:connector-curvature="0"
   id="path94"
   style="fill:#404041;fill-opacity:1;fill-rule:nonzero;stroke:none"
   d="m 0,0 c 0,-8.628 4.885,-13.018 8.809,-16.546 3.693,-3.319 5.62,-5.243 5.62,-9.39 0,-4.148 -1.927,-6.072 -5.62,-9.392 C 4.885,-38.855 0,-43.246 0,-51.874 c 0,-2.656 2.154,-4.81 4.81,-4.81 2.656,0 4.81,2.154 4.81,4.81 0,4.147 1.927,6.072 5.62,9.391 3.924,3.528 8.809,7.918 8.809,16.547 0,8.627 -4.885,13.018 -8.809,16.545 C 11.547,-6.072 9.62,-4.147 9.62,0 9.62,0.82 9.594,1.47 9.571,2.014 9.561,2.265 9.545,2.475 9.545,2.664 9.58,2.724 9.629,2.806 9.698,2.913 11.137,5.145 10.495,8.122 8.261,9.561 6.03,11.001 3.051,10.356 1.612,8.124 -0.067,5.519 -0.133,3.857 -0.04,1.619 -0.022,1.182 0,0.658 0,0" />


        </g>


        <g
   transform="translate(307.2531,388.2443)"
   id="g96">
          <path
   inkscape:connector-curvature="0"
   id="path98"
   style="fill:#404041;fill-opacity:1;fill-rule:nonzero;stroke:none"
   d="m 0,0 c 1.219,0 2.439,0.461 3.376,1.385 2.962,2.918 6.361,7.179 6.361,14.273 0,2.656 -2.153,4.81 -4.81,4.81 -2.656,0 -4.81,-2.154 -4.81,-4.81 0,-3.328 -1.281,-5.241 -3.493,-7.422 C -5.267,6.371 -5.29,3.326 -3.425,1.433 -2.485,0.479 -1.243,0 0,0" />


        </g>


      </g>


    </g>


  </g>


</svg>
